<?xml version="1.0" encoding="utf-8"?>
<!-- Generator: Adobe Illustrator 16.2.1, SVG Export Plug-In . SVG Version: 6.00 Build 0)  -->
<!DOCTYPE svg PUBLIC "-//W3C//DTD SVG 1.1//EN" "https://www.w3.org/Graphics/SVG/1.1/DTD/svg11.dtd" [
	<!ENTITY ns_extend "https://ns.adobe.com/Extensibility/1.0/">
	<!ENTITY ns_ai "https://ns.adobe.com/AdobeIllustrator/10.0/">
	<!ENTITY ns_graphs "https://ns.adobe.com/Graphs/1.0/">
	<!ENTITY ns_vars "https://ns.adobe.com/Variables/1.0/">
	<!ENTITY ns_imrep "https://ns.adobe.com/ImageReplacement/1.0/">
	<!ENTITY ns_sfw "https://ns.adobe.com/SaveForWeb/1.0/">
	<!ENTITY ns_custom "https://ns.adobe.com/GenericCustomNamespace/1.0/">
	<!ENTITY ns_adobe_xpath "https://ns.adobe.com/XPath/1.0/">
]>
<svg version="1.1" id="Layer_1" xmlns:x="&ns_extend;" xmlns:i="&ns_ai;" xmlns:graph="&ns_graphs;"
	 xmlns="https://www.w3.org/2000/svg" xmlns:xlink="https://www.w3.org/1999/xlink" x="0px" y="0px" width="100% height="100%"
	 viewBox="0 0 981 116" enable-background="new 0 0 981 116" xml:space="preserve">
<metadata>
	<sfw  xmlns="&ns_sfw;">
		<slices></slices>
		<sliceSourceBounds  height="119.856" width="565.625" x="197.937" y="-105.992" bottomLeftOrigin="true"></sliceSourceBounds>
	</sfw>
</metadata>
<g>
	<g>
		<polygon fill="#F5DADC" points="737.973,6.891 741.339,23.177 724.449,16.209 		"/>
		<polygon fill="#CF7F48" points="754.534,-5.558 757.9,10.729 742.091,4.187 		"/>
		<polygon fill="#78A59C" points="720.759,19.136 722.474,35.679 706.933,27.333 		"/>
		<polygon fill="#E9DB7A" points="701.312,30.777 702.798,47.342 686.808,38.226 		"/>
		<polygon fill="#CF7F48" points="681.552,41.066 681.194,57.693 666.811,47.477 		"/>
		<polygon fill="#CA5741" points="661.32,50.391 659.906,67.625 646.254,56.452 		"/>
		<polygon fill="#78A59C" points="640.289,58.8 638.882,75.371 625.175,64.266 		"/>
		<polygon fill="#F5DADC" points="619.396,66.3 616.428,83.23 603.88,70.831 		"/>
		<polygon fill="#E9DB7A" points="598.315,72.791 594.994,89.086 582.979,76.445 		"/>
		<polygon fill="#CA5741" points="533.723,86.229 528.633,102.061 518.077,88.18 		"/>
		<polygon fill="#E9DB7A" points="512.533,88.5 506.639,104.049 496.81,89.645 		"/>
		<polygon fill="#CF7F48" points="577.195,78.127 572.677,94.613 561.468,81.488 		"/>
		<polygon fill="#78A59C" points="554.959,82.321 550.616,98.374 539.11,85.001 		"/>
		<path fill="none" stroke="#77A7A5" stroke-miterlimit="10" d="M763.23-13.49c-52.565,46.545-116.822,74.843-186.39,91.586
			c-17.298,3.826-33.514,6.941-50.797,8.969c-1.8-0.014-3.24,0.336-5.039,0.322c-1.079-0.007-2.165,0.703-3.246,0.694
			c-16.56,1.314-32.404,2.994-48.983,2.925"/>
	</g>
	<g>
		<polygon fill="#F5DADC" points="464.189,90.934 457.128,105.992 447.777,90.296 		"/>
		<polygon fill="#CF7F48" points="484.907,90.883 477.848,105.941 469.106,91.234 		"/>
		<polygon fill="#78A59C" points="443.068,90.429 434.535,104.704 427.088,88.711 		"/>
		<polygon fill="#E9DB7A" points="420.525,88.103 411.793,102.258 404.448,85.382 		"/>
		<polygon fill="#CF7F48" points="398.537,84.507 388.293,97.606 382.894,80.812 		"/>
		<polygon fill="#CA5741" points="376.752,79.856 365.299,92.81 361.057,75.687 		"/>
		<polygon fill="#78A59C" points="354.873,73.994 343.822,86.42 339.496,69.319 		"/>
		<polygon fill="#F5DADC" points="333.65,67.485 321.134,79.266 318.512,61.82 		"/>
		<polygon fill="#E9DB7A" points="312.883,60.057 300.461,71.117 298.413,53.799 		"/>
		<polygon fill="#CA5741" points="253.108,32.13 239.549,41.761 239.41,24.322 		"/>
		<polygon fill="#E9DB7A" points="234.781,21.257 220.746,30.18 221.501,12.755 		"/>
		<polygon fill="#CF7F48" points="292.772,51.681 279.28,62.178 278.166,44.951 		"/>
		<polygon fill="#78A59C" points="272.455,41.721 259.361,51.974 258.158,34.374 		"/>
		<path fill="none" stroke="#77A7A5" stroke-miterlimit="10" d="M496.622,89.741c-69.973,5.789-138.377-10.039-204.115-38.298
			c-16.143-7.296-30.995-14.512-46.05-23.242c-1.432-1.088-2.796-1.672-4.229-2.76c-0.859-0.651-2.154-0.734-3.015-1.387
			c-14.048-8.867-27.741-17.012-40.977-26.997"/>
	</g>
</g>
</svg>
