<svg height="20" viewBox="0 0 24 20" width="24" xmlns="http://www.w3.org/2000/svg"><path d="m23.606 9.278-8.8-8.771c-.2862161-.28532219-.7160368-.37031851-1.089308-.21540879-.3732712.15490973-.6166064.51926973-.616692.92340879v5.025c0 .13807119-.1119288.25-.25.25h-11.75c-.55228475 0-1 .44771525-1 1v5c0 .5522847.44771525 1 1 1h11.75c.1380712 0 .25.1119288.25.25v5.043c.0000863.4043959.2437275.7689341.6173454.923678.373618.1547439.8036603.0692299 1.0896546-.216678l8.8-8.8c.1880834-.1876085.2937876-.4423455.2937876-.708 0-.26565452-.1057042-.52039147-.2937876-.708z" fill="#fff" fill-rule="evenodd"/></svg>