<svg height="25" viewBox="0 0 177 25" width="177" xmlns="http://www.w3.org/2000/svg"><path d="m568 26.3509319c0 2.2786303-2.128693 3.6490681-4.154548 3.6490681-1.242118 0-1.845452-.8762896-1.845452-1.7206762 0-1.5778067 1.170869-2.2793238 3.054577-2.2793238h2.945423zm-3.515962-11.3509319c-3.656423 0-6.242545 1.970323-6.810496 4.8439676l3.721673.8307271c.567249-1.6272115 1.844173-2.00799 3.088823-2.00799 1.631236 0 3.120747.6232165 3.120747 2.5647757v.7618994h-2.979022c-4.507472 0-7.625763 2.2473461-7.625763 5.7096221 0 3.4619336 2.376342 5.2969981 5.42342 5.2969981 2.557005 0 4.259454-1.003995 5.500596-2.4897843l.461306 2.2127611h3.614678v-10.4179888c0-5.5771031-3.260015-7.304988-7.515962-7.304988zm-111.790138 7.2672366h8.779935v-4.1118632h-8.779935v-5.0435102h10.94767v-4.1118632h-15.64157v24h16v-4.1118632h-11.3061zm14.3061-9.1553734h6.74364v19.8881368h4.513064v-19.8881368h6.743296v-4.1118632h-18zm34.538659 11.7271533-8.836697-15.8390165h-4.701962v24h4.461341v-15.8390165l8.837037 15.8390165h4.701622v-24h-4.461341zm29.202022-12.6515692c2.997606 0 4.902066 1.8156888 6.06567 4.6095078l4.193649-1.0824365c-1.26964-4.4699722-4.754871-7.7145186-10.259319-7.7145186-6.104038 0-11.740681 4.1525634-11.740681 12.5012088 0 8.3462278 5.42492 12.4987912 11.388042 12.4987912 3.173751 0 5.042982-1.46685 5.995212-2.8953622l.387868 2.6159458h3.84101v-12.3240264h-9.025256v3.7684954h4.587446c-.282181 2.1997568-1.907251 4.6471547-5.539676 4.6471547-3.84694 0-6.985462-2.4473979-6.985462-8.3109985 0-5.6947073 3.138522-8.3137615 7.091497-8.3137615zm18.710255 5.7982358v-2.720289h-4.450936v16.7346059h4.450936v-5.9444326c0-5.4129877 2.26511-7.3722395 4.853046-7.3722395.7548 0 1.330055.1658712 1.8694.464768l.826618-3.8163533c-.718891-.1990456-1.402228-.3317426-2.192581-.3317426-2.049301 0-4.061982 1.0293873-5.356483 2.9856831zm30.933875-2.9579915c0-2.1219297 1.528994-3.2871573 3.978073-3.2871573 1.494718 0 2.276017.1411127 3.363451.6000782l1.322328-3.3164976c-.982253-.52987118-2.783105-1.0241149-4.923697-1.0241149-4.759373 0-7.950434 2.2571045-7.950434 6.9924134v.2116691h-2.174532v3.7405343h2.174532v14.0553832h4.210279v-14.0553832h5.40491v14.0553832h4.210279v-17.7959175h-9.615189zm19.370873 6.7896808c-1.029182-.3807784-1.64642-.9348247-1.64642-1.6963816 0-.9694099.754665-1.4542861 1.577875-1.4542861.963692 0 2.095691.4848762 2.884968 1.5234562l2.535799-2.3541833c-1.0604-1.6936423-3.084832-2.8359776-5.420767-2.8359776-3.362063 0-5.520529 2.3856866-5.520529 5.0864057 0 2.7003766 1.612487 3.9118822 3.496437 4.7083666 2.092637.8998973 4.325755 1.2145874 4.325755 2.668531 0 1.2813606-.82321 1.8696496-2.129963 1.8696496-1.681031 0-2.847302-1.1769205-3.465218-2.8733022l-3.393621 1.8347221c.857822 2.1466727 3.259586 4.7056272 6.858839 4.7056272 3.74245 0 6.141161-2.6630522 6.141161-5.8133775 0-3.7420385-3.87377-4.5035954-6.244316-5.3692501zm17.665993 1.5771843 7.120214-8.1904742h-5.393067l-5.781099 6.9892698v-14.1933523h-4.367725v25h4.367725v-8.4049375l6.274421 8.4049375h5.357854z" fill="#fff" fill-rule="evenodd" transform="translate(-448 -8)"/></svg>