<svg height="90" viewBox="0 0 316 90" width="316" xmlns="http://www.w3.org/2000/svg"><g fill="#fff"><path d="m25.47 42.8c-9.57 0-19.73-2.45-25.47-5.8l5.62-9.63c6.361929 2.7162119 13.1757175 4.2187048 20.09 4.43 3.46 0 5.56-.66 5.56-1.74 0-3.82-29.6-1-29.6-16.14 0-7.64 8.33-13.92 24.7-13.92 11.23 0 20.32 2.75 24.57 5.08l-6 9.15c-6.64-2-12.86-3.17-17.1-3.17-2.87 0-4.66.54-4.66 1.67 0 4.25 28.33.66 28.33 15.31-.04 8.96-8.11 14.76-26.04 14.76z"/><path d="m87.82 41.31-6.94-11.48-4.48 4.67v6.81h-20.81v-39.82h20.81v15.25l11.3-15.25h22.06l-14.89 17 15 22.78z"/><path d="m113.28 41.31v-39.82h20.8v39.82z"/><path d="m140.05 41.31v-39.82h45.62v12.74h-24.81v3.77h15.54v6.09h-15.54v3.41h24.81v13.81z"/><path d="m224.58 41.31-13.93-13.81-1.49-1.73v15.54h-18.65v-39.82h16.86l14.94 13.93 1.38 1.5v-15.43h18.71v39.82z"/><path d="m3.83 88.31v-39.82h20.8v26h25.11v13.82z"/><path d="m55.59 88.31v-39.82h20.81v39.82z"/><path d="m118.06 88.31h-19.85l-19.55-39.82h22.6l8.74 21.35 9.09-21.35h19.07z"/><path d="m140.06 88.31v-39.82h45.61v12.74h-24.81v3.77h15.54v6.09h-15.54v3.41h24.81v13.81z"/><path d="m234.26 65.05h-8.13l3.17-16.56h13.21z"/><path d="m245.86 88.31v-33c5 0 7.53-3.29 7.53-6.82h10.94v39.82z"/><path d="m288 89.8c-6.68193.0703485-13.303285-1.2723246-19.43-3.94l3.47-10c4.331073 1.5870473 8.897911 2.4355122 13.51 2.51 8.07 0 12.14-4.25 12.14-8.31v-.46c-3.454941 3.0990146-7.982627 4.7278335-12.62 4.54-10.28 0-16.44-4.9-16.44-11.72v-.29c0-7.84 8.73-15.13 22.42-15.13 14.71 0 24.57 7.71 24.57 20.21v1c0 12.93-12.19 21.59-27.62 21.59zm9.69-25.64c0-2.87-2.75-5.2-6.22-5.2-4.13 0-6.46 2.27-6.46 4.18v.18c0 2 1.92 3.77 5.62 3.77 2.609797-.0258191 5.120352-1.0037265 7.06-2.75z"/></g></svg>