<svg height="29" viewBox="0 0 200 29" width="200" xmlns="http://www.w3.org/2000/svg"><g fill="#fff" fill-rule="evenodd"><path d="m108.663889 28.1729836h-3.102028v-27.45888524h4.024588c5.279301 0 10.194259 2.91265574 10.194259 9.10367213 0 4.22327871-2.698911 7.66393441-6.981758 8.02675411l8.864191 10.328459h-3.801447l-8.425956-10.0738361h-.771849zm0-12.7664918h.961336c3.50734 0 7.053455-1.1108197 7.053455-5.3737705 0-4.51252458-3.36175-6.47593441-7.092231-6.47593441h-.92256z"/><path d="m120.707.71445902h3.582695l7.090036 14.66498358 7.093694-14.66498358h3.581233l-9.123913 18.08616398v9.3727213h-3.102028v-9.3727213z"/><path d="m199.325408 3.55657049v-2.84196721h-14.441257v27.45816392h14.441257v-2.8398033h-11.341424v-7.1272787h6.220883v-2.8390819h-6.220883v-11.81003281z"/><path d="m96.1764708 16.289377c1.8882863-1.2392131 2.735491-4.9943606 2.735491-7.21455733 0-5.60819672-4.2455348-8.36072131-9.3060835-8.36072131h-4.5791491v12.00190164h3.099833v-9.15921311h1.2159364c3.8073002 0 6.4674354 1.36616393 6.4674354 5.51803278 0 4.15908193-2.8510855 6.50118033-6.2516103 6.51921313v2.6219672h1.263491c3.4005249 0 7.5377813-.6383607 7.5377813 3.6202623 0 4.1908197-3.6587833 3.496918-7.1310059 3.496918h-1.6702664v2.8398033h1.9285248c5.5039046 0 9.9747755-.6535082 9.9747755-6.1138361 0-3.2826885-1.9599842-4.9712786-5.2851532-5.7697705"/><path d="m14.7246823 5.23304262c-1.2569066-1.97062295-3.03033-3.2437377-5.65315308-3.2437377-2.99155467 0-5.24637773 2.36734426-5.24637773 5.24393442 0 2.87803276 2.77060835 4.07973766 5.02543141 5.13645906l5.3180755 2.7294426c2.1063062 1.3113442 3.1751889 2.9840656 3.1751889 5.4617705 0 4.5550819-4.2089543 7.9777049-8.71494233 7.9777049-3.88046123 0-6.91079125-2.3695082-8.2020835-5.9017705l1.55247714-.6910164c1.18081908 2.9119344 3.36101789 4.9532459 6.723499 4.9532459 3.65512529 0 6.86835789-2.8405246 6.86835789-6.4809836 0-3.0958688-3.2132326-4.4057705-5.61291455-5.5750164l-5.02323658-2.6198033c-1.84804771-1.1288524-2.88473956-2.72944259-2.88473956-4.91645899 0-4.07829508 2.9579006-6.95272131 7.13027436-6.95272131 2.80718883 0 5.46732403 1.49022951 6.79958643 3.85540984z"/><path d="m36.3770561.71445902h2.3616381l-13.6277057 15.05737708 14.4756421 12.4015082h-2.3235944l-13.3694473-11.2726558-.7411213.7299672v10.5426886h-1.7726919v-27.45888528h1.7726919v14.65993438z"/><path d="m43.7371292 28.1729836h1.7712287v-27.45888524h-1.7712287z"/><path d="m86.804396 28.3559082-16.845328-22.5092459v22.5092459h-1.7726919v-27.82170492l16.8424016 21.76773772-.003658-6.8668853h1.7697654z"/><path d="m64.1089654 2.35436066v-1.6402623h-13.2970179v27.45888524h13.2970179v-1.6388197h-11.524326v-9.5299672h6.7352047v-1.637377h-6.7352047v-13.01245904z"/><g transform="translate(141.932406)"><path d="m17.589961 17.1946951c-.003658-.4912131-.0109741-.9593443-.0109741-1.4029508v-.2481312h-8.07551493v2.8289836l4.83960243-.0476065v.3217049c0 6.2927213-2.6198967 7.1409836-5.2193082 7.1409836-2.73329622-.0050492-5.52951093-1.3243279-5.52951093-11.0584262 0-6.79475414.37385288-10.9285902 5.53536382-11.05842627.06438171 0 .13607952-.00360656.19899801-.00360656 2.9805805 0 4.489161 1.70806558 4.879841 3.16872131l.0343856.13344263 3.0603261-.98819672-.0482863-.12695082c-1.3132406-3.696-3.7853519-5.26990164-8.27085487-5.26990164-7.63654871 0-8.69079921 6.8329836-8.69079921 14.21849177 0 8.9132459 1.49394831 14.0713443 9.11293837 14.0713443 2.18458851 0 3.87387671-.4998689 5.16151091-1.5234098 3.1312923-2.5043935 3.0793479-6.3547541 3.0281352-10.0788853z"/><path d="m38.0108883 17.2720918v-.0771803c-.0058529-.4912131-.0160955-.9593443-.0160955-1.4029508v-.2481312h-8.0718568v2.8289836l4.8410656-.0476065v.3217049c0 6.2927213-2.6213599 7.1409836-5.2207714 7.1409836-2.7332962-.0050492-5.5317057-1.3243279-5.5317057-11.0584262 0-6.79475415.3738528-10.92859021 5.5339005-11.05842628.0716979 0 .1375428-.00360655.2019245-.00360655 2.9783857 0 4.489161 1.70806557 4.8761829 3.168l.0387754.13344262 3.0559363-.98747541-.0460914-.12767213c-1.3117774-3.69527869-3.7875467-5.26918033-8.2708549-5.26918033-7.6372803 0-8.6886044 6.83298361-8.6886044 14.21849178 0 8.9125246 1.4902903 14.0713443 9.1085487 14.0713443 2.1867833 0 3.8738768-.5005902 5.1637058-1.5241312 3.1349503-2.5043934 3.083006-6.3547541 3.0259404-10.0781639"/></g></g></svg>