<svg enable-background="new 0 0 518.92 147.86" height="147" viewBox="0 0 518.92 147.86" width="518" xmlns="http://www.w3.org/2000/svg"><g fill="#fff"><path d="m92.03 5.68h1.12v130.86h-1.12z"/><path d="m128.83 90.9c-3.95 0-8.12-.81-12.11-2.42l.9-3.18c3.63 1.26 7.67 2.11 11.12 2.11 4.84 0 7.62-1.88 7.62-4.53 0-2.38-1.44-3.59-8.25-6.1-7.85-2.92-10.36-4.93-10.36-9.55 0-4.89 3.99-7.13 11.35-7.13 3.09 0 7.58.58 10.5 1.52l-.76 3.27c-3.01-.76-6.55-1.26-9.64-1.26-5.29 0-7.35.85-7.35 3.59 0 2.87 1.93 3.81 9.02 6.59 7.72 3.05 9.6 4.75 9.6 8.97-.03 4.76-4.56 8.12-11.64 8.12z"/><path d="m167.89 90.41-14.76-13.55v13.55h-4.13v-29.88h4.13v12.74l13.9-12.74h5.47l-15.97 14.49 16.86 15.38h-5.5z"/><path d="m180.57 90.41v-29.88h4.13v29.87h-4.13z"/><path d="m195.73 90.41v-29.88h20.63v3.54h-16.46v9.11h15.43v3.54h-15.43v10.14h16.46v3.54h-20.63z"/><path d="m247.35 90.41-17.49-23.59v23.59h-4.04v-29.88h3.99l17.54 23.59v-23.59h4.04v29.87h-4.04z"/><path d="m293.23 90.41-14.76-13.55v13.55h-4.12v-29.88h4.12v12.74l13.91-12.74h5.47l-15.97 14.49 16.86 15.38h-5.51z"/><path d="m315.69 90.9c-8.43 0-14.49-6.95-14.49-15.39 0-8.43 6.06-15.43 14.49-15.43s14.49 7 14.49 15.43c0 8.44-6.05 15.39-14.49 15.39zm0-27.23c-6.28 0-10.41 5.07-10.41 11.84s4.13 11.8 10.41 11.8 10.36-5.02 10.36-11.8c.01-6.77-4.08-11.84-10.36-11.84z"/><path d="m363.95 90.41v-22.52l-9.24 18.03h-2.56l-9.19-18.03v22.52h-3.99v-29.88h3.99l10.5 20 10.5-20h3.95v29.87h-3.96z"/><path d="m403.73 90.41v-22.52l-9.24 18.03h-2.56l-9.2-18.03v22.52h-3.99v-29.88h3.99l10.5 20 10.5-20h3.95v29.87h-3.95z"/><path d="m430.45 90.9c-7.76 0-12.38-5.52-12.38-11.62v-18.75h4.17v18.84c0 5.02 3.45 7.89 8.21 7.89s8.25-3.1 8.25-7.89v-18.84h4.13v18.75c0 6.1-4.62 11.62-12.38 11.62z"/><path d="m474.76 90.41-17.49-23.59v23.59h-4.04v-29.88h3.99l17.54 23.59v-23.59h4.04v29.87h-4.04z"/><path d="m489.64 90.41v-29.88h20.63v3.54h-16.46v9.11h15.43v3.54h-15.43v10.14h16.46v3.54h-20.63z"/><path d="m26.39 72.76v-.83h-.95zm-2.17 3.36v-2.43c0-.42-.46-.72-.46-.72v3.82c0-.01.46-.32.46-.67zm2.66-20.16v13.34h1.61v-12.56s0-3.23-1.82-5.3c-.9-1.17-2.82-1.84-2.82-1.84s1.75 2.24 2.39 3.53c.7 1.51.64 2.83.64 2.83zm-3.6 16.79-.69-.41v5l.69-.36zm-1.24 2.62v-1.02l-2.42.52zm6.46-5.52h-1.61l-1.42 1.46h3.03zm7.94-18.62-.6 2.88h1.21zm-7.26 7.3v15.34.7h-.68v-2.64h-1.61v2.64h-2.22v.54h2.22v23.93l1.61 1.7v-25.62h.68v26.1h.63v-26.1h4.47l-1.81 1.93 3.08-.72.59 1.95v22.89h.65v-22.88l.59-1.97 3.08.72-1.81-1.92h4.48v26.1h.63v-26.1h.68v25.63l1.61-1.7v-23.93h8.16v-.54h-8.16v-2.64h-1.61v2.64h-.68v-.7-15.34s-.04-1.77.32-3.82c.4-2.32 2.46-4.31 2.46-4.31s-2.33 1.56-2.98 4.01c-.45 1.7-.43 4.2-.43 4.2v15.26.7h-4.69l2.02-2.15-3.08.72-.59-1.95v-13.96h-.65v13.94l-.59 1.97-3.08-.72 2.02 2.14h-4.69v-.7-15.26s.02-2.5-.43-4.2c-.65-2.45-2.98-4.01-2.98-4.01s2.07 1.99 2.47 4.31c.35 2.05.32 3.82.32 3.82zm17.36 13.4v.83l.95-.83zm-.49-2.08h-1.61v1.46h3.03zm-1.61-12.76v12.21h1.61v-13.34s-.05-1.32.63-2.83c.64-1.29 2.39-3.53 2.39-3.53s-1.92.67-2.82 1.84c-1.81 2.07-1.81 5.65-1.81 5.65zm-9.49-.38h2.89c.5 0 .86-.55.86-.55h-4.54s.38.55.79.55zm4.01-1.12.49-.82h-5.95l.43.82zm16.58-16.42.43-.48c-2.62-.94-5.34-1.68-8.14-2.21l-.07.61v.02c2.66.51 5.26 1.21 7.76 2.08zm1.4-1.57c-2.87-1.09-5.86-1.94-8.95-2.54l-.08.68c2.95.57 5.81 1.37 8.57 2.38zm3.44 2.82 3.99-6.29.71.48 1.14-1.24s-2.53-2.14-5.34-3.15l-.71 1.42.93.56-2.72 2.97c-3.05-1.22-6.22-2.18-9.5-2.85l.44-3.89.88.21.63-1.59s-3.29-1.1-7.46-1.13l-.14 1.62 1.13.22-1.43 3.67c-1.8-.17-3.62-.28-5.47-.28-2.2 0-4.38.14-6.51.38l-1.49-3.77 1.13-.22-.15-1.62c-4.09.08-7.45 1.17-7.45 1.17l.63 1.59.88-.21.48 4.09c-3.2.72-6.3 1.72-9.27 2.96l-2.98-3.23.92-.56-.72-1.42c-2.67.89-5.33 3.18-5.33 3.18l1.15 1.23.71-.48 4.6 7.36 2.55 4.15h-8.49v43.58c.06 1.14.19 2.26.37 3.36 2.28 13.47 14 23.73 28.12 23.73s25.84-10.26 28.12-23.73c.19-1.1.32-2.22.37-3.37v-43.58h-8.04zm-3.25 3.98c-.38-.16-.77-.32-1.16-.48l.72-1.61c.44.18.87.37 1.31.57zm-1.83-.73c-.37-.14-.74-.28-1.11-.41l.66-1.67c.39.15.79.3 1.17.45zm5.85-5.84c-.2.39-1.01 1.75-1.69 2.89-.13.21-.25.41-.36.61-.59-.25-1.19-.5-1.8-.73.11-.19.25-.39.38-.61.68-1.09 1.56-2.49 1.96-3.08.49-.71 1.92.13 1.51.92zm-48.97-.42c.04.16-2.53-4.02-2.53-4.02l-.81.52-.46-.48c2.7-1.95 4.28-2.62 4.28-2.62l.28.59-1.07.64 3.77 4.2c3.17-1.38 6.51-2.45 9.97-3.21l-.64-5.32-1 .22-.26-.62c3.4-.93 6.21-1 6.21-1l.06.69-1.31.24 1.88 4.94c2.26-.29 4.57-.45 6.91-.45 1.98 0 3.93.12 5.85.32l1.81-4.82-1.3-.24.04-.66s2.81.05 6.22.97l-.26.62-.99-.22-.58 5.11c3.54.7 6.95 1.75 10.2 3.09l3.5-3.93-1.08-.64.28-.59s1.59.67 4.3 2.6l-.46.48-.81-.52s-2.56 4.18-2.52 4.03c.16-.57-1.54-1.92-2.34-.73-.46.68-1.4 2.13-2.08 3.2-.15.23-.28.43-.4.61-.28-.1-.56-.2-.84-.3v.01c-2.73-.98-5.57-1.75-8.49-2.29 0 0 0-.01 0-.02-.32-.06-.64-.11-.96-.17.03-.2.07-.45.11-.74.17-1.08.4-2.67.52-3.62.19-1.55-2.49-2.1-2.81-.67-.19.85-.53 2.63-.76 3.86-.06.29-.1.54-.14.75-.43-.05-.86-.08-1.29-.12-1.56-.13-3.13-.22-4.72-.22-1.82 0-3.61.1-5.39.28-.55.05-1.1.11-1.65.18-.04-.2-.09-.46-.15-.74-.26-1.26-.64-3.13-.83-3.99-.32-1.43-3.01-.86-2.81.68.12.95.39 2.63.57 3.8.05.28.09.53.12.74-.17.03-.34.07-.52.1v.01c-2.88.57-5.67 1.36-8.36 2.35-.42.15-.84.31-1.26.47-.11-.16-.24-.37-.39-.61-.7-1.08-1.78-2.75-2.29-3.49-.79-1.18-2.49.18-2.32.75zm42 3.94-.66 1.68c-.39-.13-.78-.26-1.18-.38l.56-1.73c.43.13.86.28 1.28.43zm-1.95-.65-.56 1.73c-.37-.11-.74-.22-1.12-.32l.48-1.77c.4.12.8.23 1.2.36zm-1.89-.55-.48 1.78c-.41-.11-.82-.21-1.23-.3l.38-1.82c.44.11.89.22 1.33.34zm-2.02-.5-.38 1.82c-.38-.08-.76-.16-1.14-.23l.34-1.84c.39.08.78.17 1.18.25zm-2.18-2.84c-.04.28-.08.54-.11.74-.68-.11-1.37-.2-2.07-.28.04-.21.08-.46.13-.75.22-1.23.54-2.98.72-3.75.19-.84 1.92-.53 1.83.37-.03.52-.3 2.38-.5 3.67zm.3 2.46-.34 1.84c-.39-.07-.79-.13-1.18-.19l.25-1.86c.42.06.85.13 1.27.21zm-1.97-.32-.25 1.87c-.44-.06-.87-.12-1.31-.17l.19-1.88c.46.05.91.11 1.37.18zm-2.08-.26-.19 1.88c-.4-.04-.79-.07-1.19-.1l.14-1.89c.41.04.83.07 1.24.11zm-1.96-.16-.14 1.89c-.41-.02-.81-.04-1.22-.06l.04-1.9c.45.02.89.04 1.32.07zm-2.02-.09-.04 1.9c-.36-.01-.73-.02-1.1-.02v-1.9c.38.01.76.02 1.14.02zm-1.85 0v1.9c-.41.01-.83.01-1.24.03l-.04-1.9c.43-.02.85-.03 1.28-.03zm-1.95 1.96c-.4.02-.81.05-1.21.08l-.14-1.89c.43-.04.87-.06 1.31-.09zm-1.92.14c-.4.03-.79.08-1.19.12l-.19-1.88c.41-.05.83-.1 1.24-.13zm-4.84-2.8c-.03-.21-.07-.46-.12-.74-.21-1.34-.51-3.31-.56-3.84-.09-.9 1.63-1.22 1.83-.38.18.78.51 2.63.73 3.89.05.29.09.54.13.74-.67.1-1.34.21-2.01.33zm.94 3.3c-.39.07-.78.14-1.17.21l-.34-1.84c.42-.08.84-.16 1.26-.23zm1.81-2.18.19 1.88c-.44.05-.87.11-1.3.18l-.25-1.86c.45-.07.9-.14 1.36-.2zm-3.68 2.53c-.38.08-.75.16-1.13.25l-.38-1.81c.39-.09.78-.19 1.17-.27zm-1.82.42c-.41.1-.81.21-1.21.32l-.48-1.77c.43-.13.88-.24 1.32-.35zm-1.9.51c-.37.11-.74.21-1.1.33l-.56-1.72c.39-.13.79-.25 1.18-.37zm-1.78.55c-.39.13-.77.26-1.16.4l-.65-1.66c.41-.16.83-.31 1.25-.45zm-1.83.64c-.36.14-.73.28-1.09.42l-.72-1.62c.38-.16.77-.32 1.15-.47zm-5.03-2.38c-.68-1.16-1.64-2.79-1.87-3.23-.41-.79 1.02-1.63 1.5-.94.44.64 1.46 2.26 2.15 3.38.14.23.27.43.38.61-.61.25-1.21.51-1.81.78-.09-.17-.22-.38-.35-.6zm1.3 2.04c.42-.2.84-.39 1.27-.57l.71 1.6c-.37.16-.75.31-1.12.48zm20.7 72.5c-9.64 0-18.33-4.87-23.37-12.55h46.76c-5.03 7.67-13.75 12.55-23.39 12.55zm27.96-69.34v42.75c-.06 1.12-.18 2.22-.37 3.3-.62 3.63-1.93 7.02-3.8 10.03h-3.19v-5.57c.42.09.8.38 1.1.68.35.35 1.18.76 2.12-.12s.41-2.94.06-4.18 0-2.82 0-2.82c-1.47.78-1.88 3.7-2.29 3.96-.25.16-.68 0-.98-.14v-10.27c.42.09.8.38 1.1.68.35.35 1.18.77 2.12-.12.94-.88.41-2.94.06-4.18s0-2.81 0-2.81c-1.47.78-1.88 3.7-2.29 3.96-.25.16-.68 0-.98-.14v-8.98c.42.09.8.38 1.1.67.35.35 1.18.77 2.12-.12.94-.88.41-2.94.06-4.18s0-2.82 0-2.82c-1.47.78-1.88 3.7-2.29 3.96-.25.16-.68 0-.98-.14v-5.71h-.57v5.68c-.29.15-.77.34-1.04.17-.41-.26-.83-3.18-2.3-3.96 0 0 .35 1.58 0 2.82s-.88 3.3.06 4.18 1.77.47 2.12.12c.31-.31.71-.62 1.16-.69v8.96c-.29.15-.77.34-1.04.17-.41-.26-.83-3.18-2.3-3.96 0 0 .35 1.58 0 2.81-.35 1.24-.88 3.3.06 4.18s1.77.47 2.12.12c.31-.31.71-.62 1.16-.69v10.26c-.29.15-.77.34-1.04.17-.41-.26-.83-3.18-2.3-3.96 0 0 .35 1.58 0 2.82s-.88 3.3.06 4.18 1.77.47 2.12.12c.31-.31.71-.62 1.16-.69v5.59h-40.27v-5.57c.42.09.8.38 1.1.68.35.35 1.18.76 2.12-.12s.41-2.94.06-4.18 0-2.82 0-2.82c-1.47.78-1.88 3.7-2.29 3.96-.25.16-.68 0-.98-.14v-10.28c.42.09.8.38 1.1.68.35.35 1.18.77 2.12-.12.94-.88.41-2.94.06-4.18s0-2.81 0-2.81c-1.47.78-1.88 3.7-2.29 3.96-.25.16-.68 0-.98-.14v-8.98c.42.09.8.38 1.1.67.35.35 1.18.77 2.12-.12.94-.88.41-2.94.06-4.18s0-2.82 0-2.82c-1.47.78-1.88 3.7-2.29 3.96-.25.16-.68 0-.98-.14v-5.71h-.57v5.68c-.29.15-.77.34-1.04.17-.41-.26-.83-3.18-2.3-3.96 0 0 .35 1.58 0 2.82s-.88 3.3.06 4.18 1.77.47 2.12.12c.31-.31.71-.62 1.16-.69v8.96c-.29.15-.77.34-1.04.17-.41-.26-.83-3.18-2.3-3.96 0 0 .35 1.58 0 2.81-.35 1.24-.88 3.3.06 4.18s1.77.47 2.12.12c.31-.31.71-.62 1.16-.69v10.26c-.29.15-.77.34-1.04.17-.41-.26-.83-3.18-2.3-3.96 0 0 .35 1.58 0 2.82s-.88 3.3.06 4.18 1.77.47 2.12.12c.31-.31.71-.62 1.16-.69v5.59h-3.01c-1.87-3.01-3.19-6.4-3.8-10.03-.18-1.08-.31-2.18-.37-3.3v-42.76zm-6.6-9.83c-3.12-1.25-6.38-2.23-9.77-2.9l-.08.67c3.25.64 6.38 1.55 9.39 2.73zm-26.53-2.13.25.66c1.91-.2 3.85-.32 5.82-.32 1.61 0 3.2.09 4.77.22l.25-.67c-1.65-.15-3.33-.24-5.02-.24-2.05 0-4.07.13-6.07.35zm.53 1.39.24.63v.01c1.74-.17 3.51-.27 5.3-.27 1.43 0 2.85.08 4.25.19l.01-.02.23-.61c-1.48-.12-2.97-.2-4.49-.2-1.87-.01-3.72.09-5.54.27zm5.54-2.54c1.79 0 3.56.1 5.31.27l.25-.66c-1.83-.19-3.68-.3-5.56-.3-2.24 0-4.45.15-6.62.41l.25.66c2.09-.24 4.22-.38 6.37-.38zm-24.65 25.39v.1c-.56.25-.95.8-.95 1.45 0 .88.76 1.7 1.64 1.7.38 0 .72-.14 1-.36.05.03.03.02.08.04-.04.14-.07.29-.07.45 0 .88.74 1.61 1.62 1.61s1.59-.71 1.59-1.59c0-.19-.04-.36-.1-.53.03-.02.06-.04.09-.05.29.35.72.58 1.22.58.88 0 1.59-.71 1.59-1.59 0-.76-.53-1.39-1.25-1.55 0-.03 0-.06 0-.1.68-.18 1.18-.79 1.18-1.53 0-.88-.8-1.65-1.68-1.65-.37 0-.71.13-.98.34-.08-.05.02.01-.07-.04.04-.14.07-.28.07-.43 0-.88-.8-1.64-1.67-1.64-.88 0-1.61.72-1.61 1.6 0 .12.02.24.04.35-.06.03-.03.01-.09.04-.28-.23-.69-.34-1.08-.34-.88 0-1.59.78-1.59 1.66.01.68.43 1.25 1.02 1.48zm3.38-1.47c.85 0 1.55.7 1.55 1.55s-.69 1.55-1.55 1.55c-.85 0-1.55-.7-1.55-1.55 0-.86.69-1.55 1.55-1.55zm0 2.64c.6 0 1.09-.49 1.09-1.09s-.49-1.09-1.09-1.09-1.09.49-1.09 1.09.49 1.09 1.09 1.09zm37.42-1.17v.1c-.56.25-.95.8-.95 1.45 0 .88.76 1.7 1.64 1.7.38 0 .72-.14 1-.36.05.03.03.02.08.04-.04.14-.07.29-.07.45 0 .88.74 1.61 1.62 1.61s1.59-.71 1.59-1.59c0-.19-.04-.36-.1-.53.03-.02.06-.04.09-.05.29.35.72.58 1.22.58.88 0 1.59-.71 1.59-1.59 0-.76-.53-1.39-1.25-1.55 0-.03 0-.06 0-.1.68-.18 1.18-.79 1.18-1.53 0-.88-.8-1.65-1.68-1.65-.37 0-.71.13-.98.34-.08-.05.02.01-.07-.04.04-.14.07-.28.07-.43 0-.88-.8-1.64-1.67-1.64-.88 0-1.61.72-1.61 1.6 0 .12.02.24.04.35-.06.03-.03.01-.09.04-.28-.23-.69-.34-1.08-.34-.88 0-1.59.78-1.59 1.66.02.68.43 1.25 1.02 1.48zm3.38-1.47c.85 0 1.55.7 1.55 1.55s-.69 1.55-1.55 1.55c-.85 0-1.55-.7-1.55-1.55 0-.86.7-1.55 1.55-1.55zm0 2.64c.6 0 1.09-.49 1.09-1.09s-.49-1.09-1.09-1.09-1.09.49-1.09 1.09.49 1.09 1.09 1.09zm-38.45-20.29.01.01c2.45-.9 4.98-1.62 7.58-2.17v-.02l-.07-.62c-2.73.58-5.39 1.34-7.95 2.31zm-.94-1.05c2.69-1.04 5.48-1.87 8.36-2.48l-.08-.67c-3.02.65-5.94 1.53-8.74 2.65zm8.19-3.94-.08-.67c-3.31.72-6.5 1.73-9.54 3.01l.45.5c2.93-1.21 6-2.16 9.17-2.84z"/></g></svg>