<?xml version="1.0" encoding="utf-8"?>
<!-- Generator: Adobe Illustrator 23.0.1, SVG Export Plug-In . SVG Version: 6.00 Build 0)  -->
<svg width="518" height="147" version="1.1" id="Layer_1" xmlns="http://www.w3.org/2000/svg" xmlns:xlink="http://www.w3.org/1999/xlink" x="0px" y="0px"
	 viewBox="0 0 518.92 147.86" style="enable-background:new 0 0 518.92 147.86;" xml:space="preserve">
<style type="text/css">
	.st0{fill:#FFFFFF;}
</style>
<rect x="92.03" y="5.68" class="st0" width="1.12" height="130.86"/>
<g>
	<path class="st0" d="M128.83,90.9c-3.95,0-8.12-0.81-12.11-2.42l0.9-3.18c3.63,1.26,7.67,2.11,11.12,2.11
		c4.84,0,7.62-1.88,7.62-4.53c0-2.38-1.44-3.59-8.25-6.1c-7.85-2.92-10.36-4.93-10.36-9.55c0-4.89,3.99-7.13,11.35-7.13
		c3.09,0,7.58,0.58,10.5,1.52l-0.76,3.27c-3.01-0.76-6.55-1.26-9.64-1.26c-5.29,0-7.35,0.85-7.35,3.59c0,2.87,1.93,3.81,9.02,6.59
		c7.72,3.05,9.6,4.75,9.6,8.97C140.44,87.54,135.91,90.9,128.83,90.9z"/>
	<path class="st0" d="M167.89,90.41l-14.76-13.55v13.55H149V60.53h4.13v12.74l13.9-12.74h5.47l-15.97,14.49l16.86,15.38H167.89z"/>
	<path class="st0" d="M180.57,90.41V60.53h4.13v29.87H180.57z"/>
	<path class="st0" d="M195.73,90.41V60.53h20.63v3.54H199.9v9.11h15.43v3.54H199.9v10.14h16.46v3.54H195.73z"/>
	<path class="st0" d="M247.35,90.41l-17.49-23.59v23.59h-4.04V60.53h3.99l17.54,23.59V60.53h4.04v29.87H247.35z"/>
	<path class="st0" d="M293.23,90.41l-14.76-13.55v13.55h-4.12V60.53h4.12v12.74l13.91-12.74h5.47l-15.97,14.49l16.86,15.38H293.23z"
		/>
	<path class="st0" d="M315.69,90.9c-8.43,0-14.49-6.95-14.49-15.39c0-8.43,6.06-15.43,14.49-15.43c8.43,0,14.49,7,14.49,15.43
		C330.18,83.95,324.13,90.9,315.69,90.9z M315.69,63.67c-6.28,0-10.41,5.07-10.41,11.84c0,6.77,4.13,11.8,10.41,11.8
		c6.28,0,10.36-5.02,10.36-11.8C326.06,68.74,321.97,63.67,315.69,63.67z"/>
	<path class="st0" d="M363.95,90.41V67.89l-9.24,18.03h-2.56l-9.19-18.03v22.52h-3.99V60.53h3.99l10.5,20l10.5-20h3.95v29.87H363.95
		z"/>
	<path class="st0" d="M403.73,90.41V67.89l-9.24,18.03h-2.56l-9.2-18.03v22.52h-3.99V60.53h3.99l10.5,20l10.5-20h3.95v29.87H403.73z
		"/>
	<path class="st0" d="M430.45,90.9c-7.76,0-12.38-5.52-12.38-11.62V60.53h4.17v18.84c0,5.02,3.45,7.89,8.21,7.89
		c4.76,0,8.25-3.1,8.25-7.89V60.53h4.13v18.75C442.83,85.38,438.21,90.9,430.45,90.9z"/>
	<path class="st0" d="M474.76,90.41l-17.49-23.59v23.59h-4.04V60.53h3.99l17.54,23.59V60.53h4.04v29.87H474.76z"/>
	<path class="st0" d="M489.64,90.41V60.53h20.63v3.54h-16.46v9.11h15.43v3.54h-15.43v10.14h16.46v3.54H489.64z"/>
</g>
<path class="st0" d="M26.39,72.76v-0.83l-0.95,0L26.39,72.76z M24.22,76.12v-2.43c0-0.42-0.46-0.72-0.46-0.72v3.82
	C23.76,76.78,24.22,76.47,24.22,76.12z M26.88,55.96v13.34h1.61V56.74c0,0,0-3.23-1.82-5.3c-0.9-1.17-2.82-1.84-2.82-1.84
	s1.75,2.24,2.39,3.53C26.94,54.64,26.88,55.96,26.88,55.96z M23.28,72.75l-0.69-0.41v5l0.69-0.36V72.75z M22.04,75.37v-1.02
	l-2.42,0.52L22.04,75.37z M28.5,69.85h-1.61l-1.42,1.46h3.03V69.85z M36.44,51.23l-0.6,2.88h1.21L36.44,51.23z M29.18,58.53l0,15.34
	v0.7H28.5v-2.64h-1.61v2.64h-2.22v0.54h2.22v23.93l1.61,1.7V75.12h0.68v26.1h0.63v-26.1h4.47l-1.81,1.93l3.08-0.72l0.59,1.95v22.89
	h0.65V78.29l0.59-1.97l3.08,0.72l-1.81-1.92h4.48v26.1h0.63v-26.1h0.68v25.63l1.61-1.7V75.12h8.16v-0.54h-8.16v-2.64h-1.61v2.64
	h-0.68v-0.7l0-15.34c0,0-0.04-1.77,0.32-3.82c0.4-2.32,2.46-4.31,2.46-4.31s-2.33,1.56-2.98,4.01c-0.45,1.7-0.43,4.2-0.43,4.2
	l0,15.26v0.7h-4.69l2.02-2.15l-3.08,0.72l-0.59-1.95V57.24h-0.65v13.94l-0.59,1.97l-3.08-0.72l2.02,2.14H29.8v-0.7l0-15.26
	c0,0,0.02-2.5-0.43-4.2c-0.65-2.45-2.98-4.01-2.98-4.01s2.07,1.99,2.47,4.31C29.21,56.76,29.18,58.53,29.18,58.53z M46.54,71.93
	v0.83l0.95-0.83L46.54,71.93z M46.05,69.85h-1.61v1.46h3.03L46.05,69.85z M44.44,57.09v12.21h1.61V55.96c0,0-0.05-1.32,0.63-2.83
	c0.64-1.29,2.39-3.53,2.39-3.53s-1.92,0.67-2.82,1.84C44.44,53.51,44.44,57.09,44.44,57.09z M34.95,56.71h2.89
	c0.5,0,0.86-0.55,0.86-0.55h-4.54C34.16,56.16,34.54,56.71,34.95,56.71z M38.96,55.59l0.49-0.82H33.5l0.43,0.82H38.96z M55.54,39.17
	l0.43-0.48c-2.62-0.94-5.34-1.68-8.14-2.21l-0.07,0.61l0,0.02c2.66,0.51,5.26,1.21,7.76,2.08L55.54,39.17z M56.94,37.6
	c-2.87-1.09-5.86-1.94-8.95-2.54l-0.08,0.68c2.95,0.57,5.81,1.37,8.57,2.38L56.94,37.6z M60.38,40.42l3.99-6.29l0.71,0.48l1.14-1.24
	c0,0-2.53-2.14-5.34-3.15l-0.71,1.42l0.93,0.56l-2.72,2.97c-3.05-1.22-6.22-2.18-9.5-2.85l0.44-3.89l0.88,0.21l0.63-1.59
	c0,0-3.29-1.1-7.46-1.13l-0.14,1.62l1.13,0.22l-1.43,3.67c-1.8-0.17-3.62-0.28-5.47-0.28c-2.2,0-4.38,0.14-6.51,0.38l-1.49-3.77
	l1.13-0.22l-0.15-1.62c-4.09,0.08-7.45,1.17-7.45,1.17l0.63,1.59l0.88-0.21l0.48,4.09c-3.2,0.72-6.3,1.72-9.27,2.96l-2.98-3.23
	l0.92-0.56l-0.72-1.42c-2.67,0.89-5.33,3.18-5.33,3.18l1.15,1.23l0.71-0.48l4.6,7.36l2.55,4.15H8.12v43.58
	c0.06,1.14,0.19,2.26,0.37,3.36c2.28,13.47,14,23.73,28.12,23.73c14.12,0,25.84-10.26,28.12-23.73c0.19-1.1,0.32-2.22,0.37-3.37
	V45.74h-8.04L60.38,40.42z M57.13,44.4c-0.38-0.16-0.77-0.32-1.16-0.48l0.72-1.61c0.44,0.18,0.87,0.37,1.31,0.57L57.13,44.4z
	 M55.3,43.67c-0.37-0.14-0.74-0.28-1.11-0.41l0.66-1.67c0.39,0.15,0.79,0.3,1.17,0.45L55.3,43.67z M61.15,37.83
	c-0.2,0.39-1.01,1.75-1.69,2.89c-0.13,0.21-0.25,0.41-0.36,0.61c-0.59-0.25-1.19-0.5-1.8-0.73c0.11-0.19,0.25-0.39,0.38-0.61
	c0.68-1.09,1.56-2.49,1.96-3.08C60.13,36.2,61.56,37.04,61.15,37.83z M12.18,37.41c0.04,0.16-2.53-4.02-2.53-4.02l-0.81,0.52
	l-0.46-0.48c2.7-1.95,4.28-2.62,4.28-2.62l0.28,0.59l-1.07,0.64l3.77,4.2c3.17-1.38,6.51-2.45,9.97-3.21l-0.64-5.32l-1,0.22
	l-0.26-0.62c3.4-0.93,6.21-1,6.21-1L29.98,27l-1.31,0.24l1.88,4.94c2.26-0.29,4.57-0.45,6.91-0.45c1.98,0,3.93,0.12,5.85,0.32
	l1.81-4.82l-1.3-0.24l0.04-0.66c0,0,2.81,0.05,6.22,0.97l-0.26,0.62l-0.99-0.22l-0.58,5.11c3.54,0.7,6.95,1.75,10.2,3.09l3.5-3.93
	l-1.08-0.64l0.28-0.59c0,0,1.59,0.67,4.3,2.6l-0.46,0.48l-0.81-0.52c0,0-2.56,4.18-2.52,4.03c0.16-0.57-1.54-1.92-2.34-0.73
	c-0.46,0.68-1.4,2.13-2.08,3.2c-0.15,0.23-0.28,0.43-0.4,0.61c-0.28-0.1-0.56-0.2-0.84-0.3L56,40.12c-2.73-0.98-5.57-1.75-8.49-2.29
	c0,0,0-0.01,0-0.02c-0.32-0.06-0.64-0.11-0.96-0.17c0.03-0.2,0.07-0.45,0.11-0.74c0.17-1.08,0.4-2.67,0.52-3.62
	c0.19-1.55-2.49-2.1-2.81-0.67c-0.19,0.85-0.53,2.63-0.76,3.86c-0.06,0.29-0.1,0.54-0.14,0.75c-0.43-0.05-0.86-0.08-1.29-0.12l0,0
	c-1.56-0.13-3.13-0.22-4.72-0.22c-1.82,0-3.61,0.1-5.39,0.28c-0.55,0.05-1.1,0.11-1.65,0.18c-0.04-0.2-0.09-0.46-0.15-0.74
	c-0.26-1.26-0.64-3.13-0.83-3.99c-0.32-1.43-3.01-0.86-2.81,0.68c0.12,0.95,0.39,2.63,0.57,3.8c0.05,0.28,0.09,0.53,0.12,0.74
	c-0.17,0.03-0.34,0.07-0.52,0.1l0,0.01c-2.88,0.57-5.67,1.36-8.36,2.35c-0.42,0.15-0.84,0.31-1.26,0.47
	c-0.11-0.16-0.24-0.37-0.39-0.61c-0.7-1.08-1.78-2.75-2.29-3.49C13.71,35.48,12.01,36.84,12.18,37.41z M54.18,41.35l-0.66,1.68
	c-0.39-0.13-0.78-0.26-1.18-0.38l0.56-1.73C53.33,41.05,53.76,41.2,54.18,41.35z M52.23,40.7l-0.56,1.73
	c-0.37-0.11-0.74-0.22-1.12-0.32l0.48-1.77C51.43,40.46,51.83,40.57,52.23,40.7z M50.34,40.15l-0.48,1.78
	c-0.41-0.11-0.82-0.21-1.23-0.3l0.38-1.82C49.45,39.92,49.9,40.03,50.34,40.15z M48.32,39.65l-0.38,1.82
	c-0.38-0.08-0.76-0.16-1.14-0.23l0.34-1.84C47.53,39.48,47.92,39.57,48.32,39.65z M46.14,36.81c-0.04,0.28-0.08,0.54-0.11,0.74
	c-0.68-0.11-1.37-0.2-2.07-0.28c0.04-0.21,0.08-0.46,0.13-0.75c0.22-1.23,0.54-2.98,0.72-3.75c0.19-0.84,1.92-0.53,1.83,0.37
	C46.61,33.66,46.34,35.52,46.14,36.81z M46.44,39.27l-0.34,1.84c-0.39-0.07-0.79-0.13-1.18-0.19l0.25-1.86
	C45.59,39.12,46.02,39.19,46.44,39.27z M44.47,38.95l-0.25,1.87c-0.44-0.06-0.87-0.12-1.31-0.17l0.19-1.88
	C43.56,38.82,44.01,38.88,44.47,38.95z M42.39,38.69l-0.19,1.88c-0.4-0.04-0.79-0.07-1.19-0.1l0.14-1.89
	C41.56,38.62,41.98,38.65,42.39,38.69z M40.43,38.53l-0.14,1.89c-0.41-0.02-0.81-0.04-1.22-0.06l0.04-1.9
	C39.56,38.48,40,38.5,40.43,38.53z M38.41,38.44l-0.04,1.9c-0.36-0.01-0.73-0.02-1.1-0.02v-1.9C37.65,38.43,38.03,38.44,38.41,38.44
	z M36.56,38.44v1.9c-0.41,0.01-0.83,0.01-1.24,0.03l-0.04-1.9C35.71,38.45,36.13,38.44,36.56,38.44z M34.61,40.4
	c-0.4,0.02-0.81,0.05-1.21,0.08l-0.14-1.89c0.43-0.04,0.87-0.06,1.31-0.09L34.61,40.4z M32.69,40.54c-0.4,0.03-0.79,0.08-1.19,0.12
	l-0.19-1.88c0.41-0.05,0.83-0.1,1.24-0.13L32.69,40.54z M27.85,37.74c-0.03-0.21-0.07-0.46-0.12-0.74
	c-0.21-1.34-0.51-3.31-0.56-3.84c-0.09-0.9,1.63-1.22,1.83-0.38c0.18,0.78,0.51,2.63,0.73,3.89c0.05,0.29,0.09,0.54,0.13,0.74
	C29.19,37.51,28.52,37.62,27.85,37.74z M28.79,41.04c-0.39,0.07-0.78,0.14-1.17,0.21l-0.34-1.84c0.42-0.08,0.84-0.16,1.26-0.23
	L28.79,41.04z M30.6,38.86l0.19,1.88c-0.44,0.05-0.87,0.11-1.3,0.18l-0.25-1.86C29.69,38.99,30.14,38.92,30.6,38.86z M26.92,41.39
	c-0.38,0.08-0.75,0.16-1.13,0.25l-0.38-1.81c0.39-0.09,0.78-0.19,1.17-0.27L26.92,41.39z M25.1,41.81c-0.41,0.1-0.81,0.21-1.21,0.32
	l-0.48-1.77c0.43-0.13,0.88-0.24,1.32-0.35L25.1,41.81z M23.2,42.32c-0.37,0.11-0.74,0.21-1.1,0.33l-0.56-1.72
	c0.39-0.13,0.79-0.25,1.18-0.37L23.2,42.32z M21.42,42.87c-0.39,0.13-0.77,0.26-1.16,0.4l-0.65-1.66c0.41-0.16,0.83-0.31,1.25-0.45
	L21.42,42.87z M19.59,43.51c-0.36,0.14-0.73,0.28-1.09,0.42l-0.72-1.62c0.38-0.16,0.77-0.32,1.15-0.47L19.59,43.51z M14.56,41.13
	c-0.68-1.16-1.64-2.79-1.87-3.23c-0.41-0.79,1.02-1.63,1.5-0.94c0.44,0.64,1.46,2.26,2.15,3.38c0.14,0.23,0.27,0.43,0.38,0.61
	c-0.61,0.25-1.21,0.51-1.81,0.78C14.82,41.56,14.69,41.35,14.56,41.13z M15.86,43.17c0.42-0.2,0.84-0.39,1.27-0.57l0.71,1.6
	c-0.37,0.16-0.75,0.31-1.12,0.48L15.86,43.17z M36.56,115.67c-9.64,0-18.33-4.87-23.37-12.55h46.76
	C54.92,110.79,46.2,115.67,36.56,115.67z M64.52,46.33v42.75c-0.06,1.12-0.18,2.22-0.37,3.3c-0.62,3.63-1.93,7.02-3.8,10.03h-3.19
	v-5.57c0.42,0.09,0.8,0.38,1.1,0.68c0.35,0.35,1.18,0.76,2.12-0.12c0.94-0.88,0.41-2.94,0.06-4.18c-0.35-1.24,0-2.82,0-2.82
	c-1.47,0.78-1.88,3.7-2.29,3.96c-0.25,0.16-0.68,0-0.98-0.14V83.95c0.42,0.09,0.8,0.38,1.1,0.68c0.35,0.35,1.18,0.77,2.12-0.12
	c0.94-0.88,0.41-2.94,0.06-4.18c-0.35-1.24,0-2.81,0-2.81c-1.47,0.78-1.88,3.7-2.29,3.96c-0.25,0.16-0.68,0-0.98-0.14v-8.98
	c0.42,0.09,0.8,0.38,1.1,0.67c0.35,0.35,1.18,0.77,2.12-0.12c0.94-0.88,0.41-2.94,0.06-4.18c-0.35-1.24,0-2.82,0-2.82
	c-1.47,0.78-1.88,3.7-2.29,3.96c-0.25,0.16-0.68,0-0.98-0.14v-5.71h-0.57v5.68c-0.29,0.15-0.77,0.34-1.04,0.17
	c-0.41-0.26-0.83-3.18-2.3-3.96c0,0,0.35,1.58,0,2.82c-0.35,1.24-0.88,3.3,0.06,4.18c0.94,0.88,1.77,0.47,2.12,0.12
	c0.31-0.31,0.71-0.62,1.16-0.69v8.96c-0.29,0.15-0.77,0.34-1.04,0.17c-0.41-0.26-0.83-3.18-2.3-3.96c0,0,0.35,1.58,0,2.81
	c-0.35,1.24-0.88,3.3,0.06,4.18c0.94,0.88,1.77,0.47,2.12,0.12c0.31-0.31,0.71-0.62,1.16-0.69v10.26c-0.29,0.15-0.77,0.34-1.04,0.17
	c-0.41-0.26-0.83-3.18-2.3-3.96c0,0,0.35,1.58,0,2.82c-0.35,1.24-0.88,3.3,0.06,4.18c0.94,0.88,1.77,0.47,2.12,0.12
	c0.31-0.31,0.71-0.62,1.16-0.69v5.59H16.35v-5.57c0.42,0.09,0.8,0.38,1.1,0.68c0.35,0.35,1.18,0.76,2.12-0.12
	c0.94-0.88,0.41-2.94,0.06-4.18c-0.35-1.24,0-2.82,0-2.82c-1.47,0.78-1.88,3.7-2.29,3.96c-0.25,0.16-0.68,0-0.98-0.14V83.95
	c0.42,0.09,0.8,0.38,1.1,0.68c0.35,0.35,1.18,0.77,2.12-0.12c0.94-0.88,0.41-2.94,0.06-4.18c-0.35-1.24,0-2.81,0-2.81
	c-1.47,0.78-1.88,3.7-2.29,3.96c-0.25,0.16-0.68,0-0.98-0.14v-8.98c0.42,0.09,0.8,0.38,1.1,0.67c0.35,0.35,1.18,0.77,2.12-0.12
	c0.94-0.88,0.41-2.94,0.06-4.18c-0.35-1.24,0-2.82,0-2.82c-1.47,0.78-1.88,3.7-2.29,3.96c-0.25,0.16-0.68,0-0.98-0.14v-5.71h-0.57
	v5.68c-0.29,0.15-0.77,0.34-1.04,0.17c-0.41-0.26-0.83-3.18-2.3-3.96c0,0,0.35,1.58,0,2.82c-0.35,1.24-0.88,3.3,0.06,4.18
	c0.94,0.88,1.77,0.47,2.12,0.12c0.31-0.31,0.71-0.62,1.16-0.69v8.96c-0.29,0.15-0.77,0.34-1.04,0.17c-0.41-0.26-0.83-3.18-2.3-3.96
	c0,0,0.35,1.58,0,2.81c-0.35,1.24-0.88,3.3,0.06,4.18c0.94,0.88,1.77,0.47,2.12,0.12c0.31-0.31,0.71-0.62,1.16-0.69v10.26
	c-0.29,0.15-0.77,0.34-1.04,0.17c-0.41-0.26-0.83-3.18-2.3-3.96c0,0,0.35,1.58,0,2.82c-0.35,1.24-0.88,3.3,0.06,4.18
	c0.94,0.88,1.77,0.47,2.12,0.12c0.31-0.31,0.71-0.62,1.16-0.69v5.59h-3.01c-1.87-3.01-3.19-6.4-3.8-10.03
	c-0.18-1.08-0.31-2.18-0.37-3.3V46.33H64.52z M57.92,36.5c-3.12-1.25-6.38-2.23-9.77-2.9l-0.08,0.67c3.25,0.64,6.38,1.55,9.39,2.73
	L57.92,36.5z M31.39,34.37l0.25,0.66c1.91-0.2,3.85-0.32,5.82-0.32c1.61,0,3.2,0.09,4.77,0.22l0.25-0.67
	c-1.65-0.15-3.33-0.24-5.02-0.24C35.41,34.02,33.39,34.15,31.39,34.37z M31.92,35.76l0.24,0.63l0,0.01c1.74-0.17,3.51-0.27,5.3-0.27
	c1.43,0,2.85,0.08,4.25,0.19l0.01-0.02l0.23-0.61c-1.48-0.12-2.97-0.2-4.49-0.2C35.59,35.48,33.74,35.58,31.92,35.76z M37.46,33.22
	c1.79,0,3.56,0.1,5.31,0.27l0.25-0.66c-1.83-0.19-3.68-0.3-5.56-0.3c-2.24,0-4.45,0.15-6.62,0.41l0.25,0.66
	C33.18,33.36,35.31,33.22,37.46,33.22z M12.81,58.61c0,0.04,0,0.05,0,0.1c-0.56,0.25-0.95,0.8-0.95,1.45c0,0.88,0.76,1.7,1.64,1.7
	c0.38,0,0.72-0.14,1-0.36c0.05,0.03,0.03,0.02,0.08,0.04c-0.04,0.14-0.07,0.29-0.07,0.45c0,0.88,0.74,1.61,1.62,1.61
	c0.88,0,1.59-0.71,1.59-1.59c0-0.19-0.04-0.36-0.1-0.53c0.03-0.02,0.06-0.04,0.09-0.05c0.29,0.35,0.72,0.58,1.22,0.58
	c0.88,0,1.59-0.71,1.59-1.59c0-0.76-0.53-1.39-1.25-1.55c0-0.03,0-0.06,0-0.1c0.68-0.18,1.18-0.79,1.18-1.53
	c0-0.88-0.8-1.65-1.68-1.65c-0.37,0-0.71,0.13-0.98,0.34c-0.08-0.05,0.02,0.01-0.07-0.04c0.04-0.14,0.07-0.28,0.07-0.43
	c0-0.88-0.8-1.64-1.67-1.64c-0.88,0-1.61,0.72-1.61,1.6c0,0.12,0.02,0.24,0.04,0.35c-0.06,0.03-0.03,0.01-0.09,0.04
	c-0.28-0.23-0.69-0.34-1.08-0.34c-0.88,0-1.59,0.78-1.59,1.66C11.8,57.81,12.22,58.38,12.81,58.61z M16.19,57.14
	c0.85,0,1.55,0.7,1.55,1.55c0,0.85-0.69,1.55-1.55,1.55c-0.85,0-1.55-0.7-1.55-1.55C14.64,57.83,15.33,57.14,16.19,57.14z
	 M16.19,59.78c0.6,0,1.09-0.49,1.09-1.09c0-0.6-0.49-1.09-1.09-1.09c-0.6,0-1.09,0.49-1.09,1.09C15.1,59.29,15.59,59.78,16.19,59.78
	z M53.61,58.61c0,0.04,0,0.05,0,0.1c-0.56,0.25-0.95,0.8-0.95,1.45c0,0.88,0.76,1.7,1.64,1.7c0.38,0,0.72-0.14,1-0.36
	c0.05,0.03,0.03,0.02,0.08,0.04c-0.04,0.14-0.07,0.29-0.07,0.45c0,0.88,0.74,1.61,1.62,1.61c0.88,0,1.59-0.71,1.59-1.59
	c0-0.19-0.04-0.36-0.1-0.53c0.03-0.02,0.06-0.04,0.09-0.05c0.29,0.35,0.72,0.58,1.22,0.58c0.88,0,1.59-0.71,1.59-1.59
	c0-0.76-0.53-1.39-1.25-1.55c0-0.03,0-0.06,0-0.1c0.68-0.18,1.18-0.79,1.18-1.53c0-0.88-0.8-1.65-1.68-1.65
	c-0.37,0-0.71,0.13-0.98,0.34c-0.08-0.05,0.02,0.01-0.07-0.04c0.04-0.14,0.07-0.28,0.07-0.43c0-0.88-0.8-1.64-1.67-1.64
	c-0.88,0-1.61,0.72-1.61,1.6c0,0.12,0.02,0.24,0.04,0.35c-0.06,0.03-0.03,0.01-0.09,0.04c-0.28-0.23-0.69-0.34-1.08-0.34
	c-0.88,0-1.59,0.78-1.59,1.66C52.61,57.81,53.02,58.38,53.61,58.61z M56.99,57.14c0.85,0,1.55,0.7,1.55,1.55
	c0,0.85-0.69,1.55-1.55,1.55c-0.85,0-1.55-0.7-1.55-1.55C55.44,57.83,56.14,57.14,56.99,57.14z M56.99,59.78
	c0.6,0,1.09-0.49,1.09-1.09c0-0.6-0.49-1.09-1.09-1.09c-0.6,0-1.09,0.49-1.09,1.09C55.9,59.29,56.39,59.78,56.99,59.78z
	 M18.54,39.49l0.01,0.01c2.45-0.9,4.98-1.62,7.58-2.17l0-0.02l-0.07-0.62c-2.73,0.58-5.39,1.34-7.95,2.31L18.54,39.49z M17.6,38.44
	c2.69-1.04,5.48-1.87,8.36-2.48l-0.08-0.67c-3.02,0.65-5.94,1.53-8.74,2.65L17.6,38.44z M25.79,34.5l-0.08-0.67
	c-3.31,0.72-6.5,1.73-9.54,3.01l0.45,0.5C19.55,36.13,22.62,35.18,25.79,34.5z"/>
</svg>
