<svg height="2369" viewBox="0 0 520 2369" width="520" xmlns="http://www.w3.org/2000/svg"><g fill="#fff" opacity=".3" transform="matrix(0 -1 1 0 0 2369)"><path d="m311.019802 522c-116.861386 0-240.9273928-29.880841-311.019802-70.738318l68.6270627-117.45c77.6869223 33.127631 160.8916003 51.452428 245.3234323 54.029439 42.250825 0 67.894389-8.049532 67.894389-21.221495 0-46.589719-361.4521447-12.196262-361.4521447-196.847663 0-93.1794396 101.7194717-169.771963 301.6171617-169.771963 137.132013 0 248.132013 33.5397196 300.029703 61.9570093l-73.267327 111.5957947c-81.082508-24.392524-157.036303-38.66215-208.811881-38.66215-35.046205 0-56.90429 6.585982-56.90429 20.367757 0 51.834112 345.943894 8.049533 345.943894 186.724767-.488449 109.278504-99.033003 180.016822-317.980198 180.016822z"/><path d="m679 504v-486h254.233667v317.327976h306.766333v168.672024z"/><path d="m1375.7674 220.5h-99.2674l38.70574-202h161.29426z"/><path d="m1517.5 504.5v-402.762431c61.14719 0 92.20996-40.1541938 92.20996-83.237569h133.79004v486z"/><path d="m2031.67191 522.467324c-81.56622.866482-162.39321-15.508806-237.17191-48.050263l42.25617-121.954982c53.04259 19.215362 108.94041 29.397963 165.36085 30.122881 98.55702 0 148.14085-51.830868 148.14085-101.344591v-5.122109c-42.15016 37.786611-97.40548 57.65215-154.00298 55.367562-125.66936 0-200.77787-59.757941-200.77787-142.931239v-3.65865c-.36638-95.4907509 106.25107-184.395933 273.44383-184.395933 179.52766 0 299.57915 94.0272914 299.57915 246.471019v11.585724c0 158.297567-148.50723 263.910581-336.82809 263.910581zm118.21958-312.692574c0-35.00108-33.58511-63.416591-75.9634-63.416591-50.3166 0-78.77235 27.683781-78.77235 50.977182v2.19519c0 24.390997 23.32639 45.977028 68.63575 45.977028 31.63037-.436429 62.01957-12.358164 85.48936-33.53762z"/></g></svg>