<svg viewBox="0 0 178.6 66.4" xmlns="http://www.w3.org/2000/svg"><g fill="#fff"><path d="m64.7 30.4-5.1-8.4-3.3 3.4v5h-15.3v-29.3h15.3v11.2l8.3-11.2h16.3l-11 12.6 11.1 16.7z"/><path d="m83.5 1.1h15.3v29.3h-15.3z"/><path d="m103.2 30.4v-29.3h33.6v9.4h-18.3v2.8h11.5v4.5h-11.5v2.5h18.3v10.1z"/><path d="m165.5 30.4-10.3-10.1-1.1-1.3v11.4h-13.7v-29.3h12.4l11 10.3 1 1.1v-11.4h13.8v29.3z"/><path d="m2.2 66.4v-29.3h15.3v19.1h18.5v10.2z"/><path d="m39 37.1h15.3v29.3h-15.3z"/><path d="m85.7 66.4h-14.6l-14.4-29.3h16.6l6.5 15.7 6.7-15.7h14z"/><path d="m102.8 66.4v-29.3h33.6v9.4h-18.3v2.7h11.5v4.5h-11.5v2.5h18.3v10.2z"/><path d="m18.8 31.5c-7 0-14.5-1.8-18.8-4.3l4.1-7.1a41.64 41.64 0 0 0 14.8 3.3c2.6 0 4.1-.5 4.1-1.3 0-2.8-21.8-.7-21.8-11.9 0-5.6 6.2-10.2 18.2-10.2 8.3 0 15 2 18.1 3.7l-4.4 6.7a50.48 50.48 0 0 0 -12.6-2.2c-2.1 0-3.4.4-3.4 1.2 0 3.1 20.9.5 20.9 11.3-.1 6.6-6 10.8-19.2 10.8"/></g></svg>