<svg id="Layer_1" data-name="Layer 1" xmlns="http://www.w3.org/2000/svg" viewBox="0 0 178.6 66.4"><defs><style>.cls-1{fill:#fff;}</style></defs><title>logo</title><polygon class="cls-1" points="64.7 30.4 59.6 22 56.3 25.4 56.3 30.4 41 30.4 41 1.1 56.3 1.1 56.3 12.3 64.6 1.1 80.9 1.1 69.9 13.7 81 30.4 64.7 30.4"/><rect class="cls-1" x="83.5" y="1.1" width="15.3" height="29.3"/><polygon class="cls-1" points="103.2 30.4 103.2 1.1 136.8 1.1 136.8 10.5 118.5 10.5 118.5 13.3 130 13.3 130 17.8 118.5 17.8 118.5 20.3 136.8 20.3 136.8 30.4 103.2 30.4"/><polygon class="cls-1" points="165.5 30.4 155.2 20.3 154.1 19 154.1 30.4 140.4 30.4 140.4 1.1 152.8 1.1 163.8 11.4 164.8 12.5 164.8 1.1 178.6 1.1 178.6 30.4 165.5 30.4"/><polygon class="cls-1" points="2.2 66.4 2.2 37.1 17.5 37.1 17.5 56.2 36 56.2 36 66.4 2.2 66.4"/><rect class="cls-1" x="39" y="37.1" width="15.3" height="29.3"/><polygon class="cls-1" points="85.7 66.4 71.1 66.4 56.7 37.1 73.3 37.1 79.8 52.8 86.5 37.1 100.5 37.1 85.7 66.4"/><polygon class="cls-1" points="102.8 66.4 102.8 37.1 136.4 37.1 136.4 46.5 118.1 46.5 118.1 49.2 129.6 49.2 129.6 53.7 118.1 53.7 118.1 56.2 136.4 56.2 136.4 66.4 102.8 66.4"/><path class="cls-1" d="M18.8,31.5c-7,0-14.5-1.8-18.8-4.3l4.1-7.1a41.64,41.64,0,0,0,14.8,3.3c2.6,0,4.1-.5,4.1-1.3,0-2.8-21.8-.7-21.8-11.9C1.2,4.6,7.4,0,19.4,0c8.3,0,15,2,18.1,3.7l-4.4,6.7A50.48,50.48,0,0,0,20.5,8.2c-2.1,0-3.4.4-3.4,1.2,0,3.1,20.9.5,20.9,11.3-.1,6.6-6,10.8-19.2,10.8"/></svg>