<?xml version="1.0" encoding="utf-8"?>
<!-- Generator: Adobe Illustrator 13.0.2, SVG Export Plug-In . SVG Version: 6.00 Build 14948)  -->
<!DOCTYPE svg PUBLIC "-//W3C//DTD SVG 1.1//EN" "http://www.w3.org/Graphics/SVG/1.1/DTD/svg11.dtd">
<svg version="1.1" id="Layer_1" xmlns="http://www.w3.org/2000/svg" xmlns:xlink="http://www.w3.org/1999/xlink" x="0px" y="0px"
	 width="100%" height="100%" viewBox="0 0 662.211 273.738" enable-background="new 0 0 662.211 273.738"
	 xml:space="preserve">
<g>
	<path fill="#24231E" d="M580.332,89.389c0,1.317-1.08,2.401-2.402,2.401h-4.865c-1.315,0-2.399-1.084-2.399-2.401v-4.87
		c0-1.33,1.084-2.401,2.399-2.401h4.865c1.322,0,2.402,1.071,2.402,2.401V89.389z"/>
	<path fill="#24231E" d="M416.131,167.523h-32.272c-2.714,0-5.22-1.066-7.067-2.987c-1.834-1.916-2.794-4.468-2.679-7.183
		l0.452-10.558c0.25-5.738,5.308-10.584,11.049-10.584h34.374v27.456C419.987,165.789,418.253,167.523,416.131,167.523
		 M411.766,95.161h-5.006c-7.428,0-17.469,0.623-22.374,1.378l-5.36,0.841c-0.969,0.147-1.39,0.974-0.915,1.846l0.415,0.787
		l1.598,2.991l1.606,3c0.231,0.424,0.819,0.714,1.3,0.643l1.002-0.149l0.982-0.16l0.89-0.136c4.405-0.672,13.956-1.256,20.856-1.256
		h5.006c4.516,0,8.222,3.689,8.222,8.21v13.265h-34.374c-11.021,0-20.352,8.951-20.833,19.968l-0.434,10.541
		c-0.241,5.405,1.66,10.516,5.379,14.385c3.703,3.858,8.715,5.985,14.133,5.985h25.305h6.968c7.507,0,13.624-6.118,13.624-13.633
		v-50.511C429.755,103.239,421.679,95.161,411.766,95.161"/>
	<path fill="#24231E" d="M648.59,167.523h-32.275c-2.716,0-5.24-1.066-7.066-2.987c-1.848-1.916-2.8-4.468-2.691-7.183l0.461-10.558
		c0.225-5.738,5.313-10.584,11.051-10.584h34.359v27.456C652.428,165.789,650.695,167.523,648.59,167.523 M644.212,95.161h-4.989
		c-7.444,0-17.475,0.623-22.382,1.378l-5.357,0.841c-0.984,0.147-1.394,0.974-0.923,1.846l3.617,6.778
		c0.238,0.424,0.817,0.714,1.306,0.643l0.997-0.149l1.865-0.296c4.413-0.672,13.973-1.256,20.877-1.256h4.989
		c4.538,0,8.216,3.689,8.216,8.21v13.265h-34.359c-11.018,0-20.346,8.951-20.835,19.968l-0.454,10.541
		c-0.218,5.405,1.694,10.516,5.399,14.385c3.708,3.858,8.73,5.985,14.136,5.985h25.289h6.986c7.519,0,13.621-6.118,13.621-13.633
		v-50.511C662.211,103.239,654.144,95.161,644.212,95.161"/>
	<path fill="#24231E" d="M553.757,176.446l-3.856-7.121c-0.502-0.582-1.424-1.076-2.269-1.26h-5.102
		c-1.857,0-4.511-3.197-4.511-8.219l-0.015-94.457c0-1.995-1.635-3.61-3.611-3.61h-2.564c-1.997,0-3.604,1.615-3.604,3.61v94.457
		c0,4.5,1.303,8.794,3.678,12.1c2.682,3.754,6.553,5.896,10.628,5.896h2.162l0.025-0.027l8.598-0.026
		C554.157,177.71,554.355,177.136,553.757,176.446"/>
	<path fill="#24231E" d="M580.273,102.083c0-1.988-1.611-3.595-3.594-3.595h-2.571c-1.984,0-3.608,1.607-3.608,3.595l0.015,73.029
		c0,1.977,1.62,3.599,3.594,3.599h2.599c1.978,0,3.577-1.622,3.577-3.599L580.273,102.083z"/>
	<path fill="#24231E" d="M489.006,167.321H467.25c-2.909,0-5.686-1.266-7.813-3.56c-1.872-2.017-3.026-4.628-3.35-7.444
		c0,0-0.066-40.564-0.066-40.786c0-1.396,0.291-2.772,0.93-4.038c0.431-1.374,1.637-2.651,3.568-3.733
		c1.066-0.65,2.366-1.2,3.874-1.587c3.356-0.994,7.753-1.549,13.027-1.42c8.796,0.203,16.276,2.188,19.278,5.068
		c1.962,1.788,2.647,3.882,2.795,5.841l0.049,0.101l0.2,39.512C499.743,161.92,494.931,167.321,489.006,167.321 M509.316,113.58
		c-0.371-4.716-2.834-8.482-5.471-10.867c-4.352-4.188-13.653-7.061-26.397-7.361c-7.674-0.182-14.056,0.616-18.902,2.056
		c-2.219,0.566-12.333,2.871-12.333,16.697l0.08,97.584c0.071,0.834,0.639,1.034,1.348,0.433l7.113-6.185
		c0.739-0.645,1.353-1.964,1.353-2.965v-29.284c3.296,2.222,7.143,3.408,11.144,3.408h0.019h21.737
		c11.316,0,20.521-9.775,20.521-21.821v-14.653l0.025-0.488l-0.224-24.658C509.328,114.859,509.316,114.221,509.316,113.58"/>
	<path fill="#24231E" d="M136.868,0C61.278,0,0,61.277,0,136.869c0,75.591,61.278,136.869,136.868,136.869
		c75.597,0,136.867-61.277,136.867-136.869C273.735,61.277,212.465,0,136.868,0 M67.836,195.352c-7.067,0-12.782-5.723-12.782-12.79
		c0-1.933,0.441-3.77,1.207-5.418l57.711-113.558c5.089-10.344,15.716-17.466,28.032-17.466c14.371,0,26.468,9.716,30.093,22.938
		l0.022,0.111l0.052,0.373c0,0.677-0.534,1.217-1.213,1.217l-0.29-0.033c-0.237-0.037-0.421-0.129-0.608-0.294l-0.129-0.116
		c-3.877-3.193-8.729-5.045-14.143-5.045c-8.629,0-16.112,4.88-19.849,12.037L79.197,188.422
		C77.067,192.536,72.782,195.352,67.836,195.352 M143.045,86.551c-0.619,0-1.133-0.508-1.133-1.13l0.013-0.191l0.013-0.008
		l0.025-0.136v-0.009c0.376-1.1,0.884-2.237,1.477-3.195c2.492-4.552,7.331-7.656,12.474-8.355c1.014-0.143,2.069-0.22,3.132-0.22
		c6.968,0,13.125,3.286,16.863,8.326l-0.053-0.022l0.245,0.29c0.704,0.932,1.345,1.918,1.898,2.935l37.208,73.011
		c5.281,10.244,4.655,23.027-2.676,32.903c-0.891,1.214-1.859,2.332-2.886,3.375l-0.582,0.576l-0.052,0.042
		c-5.862,5.675-13.579,8.618-21.369,8.618c-3.004,0-6.02-0.438-8.943-1.326l-0.211-0.063l-0.37-0.121
		c-0.646-0.212-1.306-0.427-1.94-0.678l-0.367-0.179l-0.013-0.026l-0.297-0.159c-0.521-0.4-0.613-1.153-0.218-1.676l0.218-0.209
		c0.163-0.163,0.348-0.252,0.587-0.29l0.176-0.041c4.82-1.086,9.225-3.75,12.494-7.962h0.007l0.179-0.212
		c5.136-6.928,5.681-15.855,2.161-23.113l-38.579-77.045c-1.253-2.47-3.817-4.152-6.778-4.152c-0.725,0-1.464,0.055-2.109,0.295
		l-0.158,0.054L143.045,86.551z M164.993,193.813c-1.7,0-3.356-0.191-4.899-0.588c0,0-2.082-0.55-3.125-0.947l-25.323-10.137
		c-3.896-1.615-6.783-5.287-7.165-9.79c-0.54-6.413,4.218-12.059,10.64-12.606c0.329-0.03,0.656-0.042,0.98-0.042
		c1.415,0,2.776,0.264,4.043,0.735l33.478,12.104c0.846,0.329,1.743,0.495,2.642,0.495c1.735,0,3.473-0.616,4.859-1.865
		c0.54-0.469,1.03-0.972,1.332-1.569l0.106-0.175c0.171-0.34,0.528-0.566,0.948-0.566c0.423,0,0.779,0.239,0.963,0.588l0.013,0.031
		c0.435,1.017,0.819,2.17,1.016,3.245v-0.013c1.293,5.537-0.805,11.682-5.051,15.467
		C176.415,191.804,170.478,193.813,164.993,193.813"/>
</g>
</svg>
